<svg id="Laag_1" data-name="Laag 1" xmlns="http://www.w3.org/2000/svg" viewBox="0 0 24 24">
  <defs>
    <style>
      .cls-1 {
        fill: currentColor;
        stroke-width: 0px;
      }
    </style>
  </defs>
  <path class="cls-1" d="M20.41,3.59c-.78-.78-2.05-.78-2.83,0-.59.59-.73,1.47-.43,2.19l-1.49,1.49c-1.02-.79-2.29-1.27-3.67-1.27-3.31,0-6,2.69-6,6,0,1.38.48,2.66,1.27,3.67l-1.49,1.49c-.73-.31-1.6-.17-2.19.43-.78.78-.78,2.05,0,2.83.78.78,2.05.78,2.83,0,.59-.59.73-1.47.43-2.19l1.49-1.49c1.02.79,2.29,1.27,3.67,1.27,3.31,0,6-2.69,6-6,0-1.38-.48-2.66-1.27-3.67l1.49-1.49c.73.31,1.6.17,2.19-.43.78-.78.78-2.05,0-2.83ZM12,16c-2.21,0-4-1.79-4-4s1.79-4,4-4,4,1.79,4,4-1.79,4-4,4Z"></path>
</svg>